<?xml version="1.0" standalone="no"?>
<!DOCTYPE svg PUBLIC "-//W3C//DTD SVG 20010904//EN"
 "http://www.w3.org/TR/2001/REC-SVG-20010904/DTD/svg10.dtd">
<svg version="1.0" xmlns="http://www.w3.org/2000/svg"
 width="1024.000000pt" height="1024.000000pt" viewBox="0 0 1024.000000 1024.000000"
 preserveAspectRatio="xMidYMid meet">

<g transform="translate(0.000000,1024.000000) scale(0.100000,-0.100000)"
fill="#000000" stroke="none">
<path d="M0 5120 l0 -5120 5120 0 5120 0 0 5120 0 5120 -5120 0 -5120 0 0
-5120z m8165 3722 c100 -28 230 -89 310 -147 135 -96 267 -264 328 -416 66
-166 61 7 64 -2124 l3 -1930 -47 46 c-114 110 -289 232 -450 315 l-105 53 -49
81 c-106 175 -310 406 -479 543 -230 186 -523 334 -803 407 -225 58 -280 65
-567 65 -287 0 -382 -12 -585 -70 -213 -62 -450 -170 -620 -283 -270 -180
-519 -444 -683 -721 -138 -235 -249 -554 -278 -804 -7 -56 -9 -60 -72 -115
-138 -121 -305 -339 -391 -511 -131 -261 -189 -534 -178 -835 11 -269 60 -460
184 -706 40 -80 102 -184 138 -232 l65 -88 -1290 0 -1290 0 2 3358 3 3357 23
80 c48 171 136 319 263 441 108 103 193 156 337 210 145 55 -18 52 3152 51
l2935 -2 80 -23z m-1490 -3752 c486 -103 891 -419 1103 -862 l46 -96 86 -28
c47 -15 131 -51 188 -80 383 -195 653 -544 743 -964 30 -139 33 -409 6 -543
-114 -566 -534 -994 -1097 -1119 l-105 -23 -1270 0 -1270 0 -98 27 c-452 125
-764 488 -818 952 -14 122 -2 274 32 397 24 87 92 234 145 316 86 130 285 307
414 368 l35 16 -3 117 c-7 220 55 478 169 701 230 452 683 771 1191 840 117
16 386 5 503 -19z"/>
<path d="M2519 7916 c-92 -35 -171 -118 -199 -209 -18 -58 -9 -163 20 -222 93
-191 346 -235 499 -86 152 149 108 407 -87 503 -57 28 -178 35 -233 14z"/>
<path d="M3769 7916 c-92 -35 -171 -118 -199 -209 -18 -58 -9 -163 20 -222 93
-191 346 -235 499 -86 152 149 108 407 -87 503 -57 28 -178 35 -233 14z"/>
</g>
</svg>
